<?xml version="1.0" standalone="no"?>
<!DOCTYPE svg PUBLIC "-//W3C//DTD SVG 20010904//EN"
 "http://www.w3.org/TR/2001/REC-SVG-20010904/DTD/svg10.dtd">
<svg version="1.0" xmlns="http://www.w3.org/2000/svg"
 width="400.000000pt" height="400.000000pt" viewBox="0 0 400.000000 400.000000"
 preserveAspectRatio="xMidYMid meet">
<metadata>
Created by potrace 1.14, written by Peter Selinger 2001-2017
</metadata>
<g transform="translate(0.000000,400.000000) scale(0.100000,-0.100000)"
fill="#000000" stroke="none">
<path d="M0 3400 c0 -531 2 -600 15 -600 10 0 29 -30 51 -77 35 -76 36 -81 31
-169 -3 -49 -12 -106 -20 -125 -7 -19 -17 -51 -21 -71 -5 -29 -13 -39 -31 -44
l-25 -6 0 -1154 0 -1154 2000 0 2000 0 0 169 0 170 -126 -6 c-119 -6 -126 -5
-122 12 1 11 14 22 28 25 19 4 26 13 28 39 3 30 6 33 33 29 38 -6 53 11 39 46
-15 39 -51 32 -62 -12 -8 -29 -13 -33 -36 -30 -25 3 -27 7 -28 52 -1 27 -6 51
-12 55 -18 11 -24 67 -9 83 19 19 26 43 28 108 2 34 8 59 17 66 10 7 16 36 19
85 2 41 9 93 15 117 10 38 14 43 34 38 16 -4 26 -1 33 11 15 28 28 7 52 -91
20 -78 24 -86 36 -70 7 10 13 24 13 31 0 7 5 13 10 13 6 0 10 95 10 265 l0
265 -60 0 c-75 0 -77 5 -83 159 -3 87 -1 111 9 111 33 0 23 60 -20 109 -12 13
-15 21 -8 17 8 -5 12 2 12 22 0 35 -13 47 -58 57 -32 7 -52 29 -52 60 0 8 -7
27 -16 40 l-16 24 -31 -29 c-37 -34 -80 -39 -115 -12 -18 14 -21 22 -13 47 12
42 3 89 -20 103 -15 10 -19 9 -19 -2 0 -22 -53 -36 -81 -22 -33 16 -35 48 -5
83 18 22 22 33 14 41 -7 7 -17 8 -29 1 -14 -7 -23 -2 -43 24 -15 19 -26 41
-26 50 0 22 -10 21 -25 0 -12 -16 -15 -16 -32 -2 -10 9 -26 19 -35 22 -13 5
-18 17 -18 49 0 24 -5 80 -10 125 -10 79 -10 82 16 120 32 47 28 90 -14 142
-40 49 -100 78 -234 112 -125 32 -182 34 -428 18 -131 -8 -219 -24 -253 -46
-22 -14 -73 -29 -85 -25 -21 7 -13 36 43 149 46 94 65 120 115 165 33 29 60
60 60 70 0 37 25 45 157 52 118 7 133 5 178 -14 68 -29 123 -47 168 -53 76
-12 221 -98 288 -172 13 -15 46 -48 73 -74 27 -25 63 -61 81 -78 17 -18 36
-33 41 -33 6 0 23 -14 40 -31 16 -18 49 -40 72 -51 24 -11 51 -32 60 -48 24
-42 49 -53 124 -54 63 -2 71 -5 103 -36 31 -30 38 -33 55 -22 11 6 42 12 70
12 l50 0 0 351 c0 331 -1 351 -17 344 -27 -11 -50 -8 -70 9 -66 58 -99 80
-155 102 -35 14 -72 34 -83 44 -22 19 -94 53 -138 64 -17 4 -38 1 -57 -9 -39
-20 -86 -19 -102 3 -14 19 -89 72 -102 72 -22 0 -146 84 -146 99 0 10 19 30
43 45 39 26 45 28 90 17 27 -6 62 -11 78 -11 16 0 29 -4 29 -9 0 -4 33 -25 74
-46 42 -21 79 -48 87 -61 9 -18 18 -23 33 -18 39 12 51 31 40 63 -10 24 -8 30
8 40 19 12 19 13 3 31 -10 11 -25 22 -35 25 -9 3 -23 17 -31 32 -8 16 -35 35
-66 49 -28 13 -54 27 -57 32 -3 6 -29 18 -56 28 -28 10 -59 26 -70 36 -18 17
-65 18 -823 18 l-804 0 -12 -26 c-10 -23 -15 -25 -49 -20 -27 5 -44 1 -63 -11
-15 -10 -64 -44 -110 -75 -46 -32 -91 -58 -100 -58 -9 0 -36 15 -60 34 -25 19
-67 39 -96 46 -29 7 -53 16 -53 21 0 4 -16 16 -36 25 -20 9 -41 28 -47 41
l-10 23 -519 0 -518 0 0 -600z m3920 -130 c11 -11 20 -29 20 -40 0 -30 -38
-100 -55 -100 -25 0 -84 107 -70 129 5 9 52 27 78 30 4 1 16 -8 27 -19z
m-2751 -874 c10 -11 8 -16 -8 -21 -37 -11 -22 -25 27 -25 44 0 52 -4 97 -50
26 -27 58 -50 69 -52 12 -2 22 -12 24 -23 2 -11 29 -44 59 -72 l56 -53 -39 0
c-52 0 -72 -16 -82 -65 -6 -30 -13 -41 -29 -43 -12 -2 -27 -10 -33 -18 -7 -8
-21 -14 -32 -14 -12 0 -24 -12 -34 -35 -7 -19 -14 -37 -14 -40 0 -12 68 -4 80
9 6 8 21 16 33 18 12 2 26 13 32 25 8 18 19 23 64 25 54 3 56 4 65 38 12 46
13 46 36 25 22 -20 28 -93 10 -139 -12 -33 -53 -59 -80 -51 -11 3 -18 9 -16
13 6 10 -56 13 -68 3 -27 -22 -95 -30 -191 -22 -55 4 -119 6 -142 3 -40 -4
-43 -6 -43 -33 0 -23 5 -29 23 -30 21 -1 21 -1 -3 -8 -22 -6 -26 -13 -30 -64
l-5 -58 -70 -34 c-45 -23 -91 -37 -130 -41 -59 -6 -60 -6 -93 30 -18 20 -37
36 -42 36 -6 0 -10 22 -10 48 0 44 3 51 43 84 31 26 48 33 59 27 11 -6 22 3
45 39 50 78 51 82 47 187 -4 93 -6 101 -29 118 -36 26 -33 62 7 81 17 9 41 16
53 16 22 0 41 16 82 67 10 12 30 24 44 27 45 7 89 35 89 55 0 31 58 43 79 17z
m361 -256 c0 -5 -4 -10 -10 -10 -5 0 -10 5 -10 10 0 6 5 10 10 10 6 0 10 -4
10 -10z m-822 -145 c1 -15 -4 -28 -13 -31 -8 -4 -15 -16 -15 -28 0 -22 -43
-56 -55 -44 -3 3 -1 27 6 52 9 38 18 50 43 61 17 7 31 14 31 14 0 1 2 -10 3
-24z m642 -255 c14 -4 23 -9 20 -10 -27 -11 -226 -17 -236 -7 -3 3 -3 10 1 16
7 13 177 13 215 1z m-480 -266 c0 -8 -4 -14 -9 -14 -11 0 -22 26 -14 34 9 9
23 -3 23 -20z m679 3 c8 0 16 -9 19 -19 2 -10 12 -18 22 -18 12 0 24 -15 35
-42 22 -55 22 -95 1 -116 -15 -15 -21 -12 -89 55 -39 40 -82 82 -95 94 l-22
22 27 18 c19 12 38 16 58 13 17 -3 36 -6 44 -7z m-494 -9 c14 -6 25 -19 25
-29 0 -24 -37 -49 -72 -49 -26 0 -28 2 -28 45 0 41 2 45 25 45 13 0 36 -5 50
-12z m-275 -78 c0 -5 -4 -10 -10 -10 -5 0 -10 5 -10 10 0 6 5 10 10 10 6 0 10
-4 10 -10z m2927 -1052 c-3 -8 -6 -5 -6 6 -1 11 2 17 5 13 3 -3 4 -12 1 -19z
m-838 -142 c15 -8 42 -31 60 -52 31 -34 31 -37 15 -55 -9 -10 -20 -19 -24 -19
-5 0 -30 20 -56 44 -27 24 -62 55 -79 70 l-30 25 43 1 c24 0 56 -7 71 -14z
m406 -11 c32 -31 32 -55 1 -55 -14 0 -28 5 -31 10 -3 6 -21 10 -40 10 -67 0
-83 19 -37 44 41 23 79 19 107 -9z m57 -131 c-6 -35 -12 -29 -12 14 0 23 3 32
9 24 4 -7 6 -24 3 -38z"/>
<path d="M3905 3983 c8 -23 61 -217 70 -260 15 -73 25 -25 25 122 l0 155 -51
0 c-45 0 -50 -2 -44 -17z"/>
<path d="M2787 3060 c-6 -24 3 -31 32 -23 14 4 20 11 17 20 -3 8 -6 17 -6 19
0 15 -39 0 -43 -16z"/>
<path d="M3415 2590 c-4 -12 -4 -38 0 -58 l7 -37 14 25 c17 32 17 50 0 73 -14
18 -15 17 -21 -3z"/>
<path d="M3855 771 c-3 -5 -2 -12 3 -15 5 -3 9 1 9 9 0 17 -3 19 -12 6z"/>
</g>
</svg>
